<svg xmlns="http://www.w3.org/2000/svg" width="1799" height="760" fill="none"><mask id="b" width="1340" height="415" x="952" y="345" maskUnits="userSpaceOnUse" style="mask-type:alpha"><ellipse cx="1622" cy="552.5" fill="url(#a)" rx="670" ry="207.5"/></mask><g stroke="#172136" mask="url(#b)"><path d="M1705.46-30.725v787.45M1613.83-30.725v787.45M1798.06-30.725v787.45M1751.76-30.725v787.45M1660.13-30.725v787.45M1611.9 664.197h784.18M1611.9 756.725h784.18M1611.9 571.669h784.18M1611.9 479.142h784.18M1611.9 386.614h784.18M1611.9 617.934h784.18M1611.9 710.461h784.18M1611.9 525.405h784.18M1611.9 432.878h784.18M1015.81-30.725v787.45M1107.44-30.725v787.45M1200.04-30.725v787.45M1291.67-30.725v787.45M1383.3-30.725v787.45M1475.9-30.725v787.45M1567.53-30.725v787.45M969.508-30.725v787.45M1062.1-30.725v787.45M1153.74-30.725v787.45M1245.37-30.725v787.45M1337.97-30.725v787.45M1429.6-30.725v787.45M1522.2-30.725v787.45M1613.83-30.725v787.45M829.648 664.197h784.182M829.648 756.725h784.182M829.648 571.67h784.182M829.648 479.142h784.182M829.648 386.614h784.182M829.648 617.934h784.182M829.648 710.461h784.182M829.648 525.405h784.182M829.648 432.878h784.182"/></g><mask id="d" width="1340" height="357" x="0" y="-3" maskUnits="userSpaceOnUse" style="mask-type:alpha"><ellipse cx="670" cy="175.5" fill="url(#c)" rx="670" ry="178.5"/></mask><g stroke="#172136" mask="url(#d)"><path d="M602.897-263.725v787.45M511.333-263.725l.001 787.45M695.425-263.725v787.45M786.989-263.725v787.45M879.517-263.725v787.45M971.081-263.725v787.45M1062.64-263.725v787.45M1155.17-263.725v787.45M1246.74-263.725v787.45M649.161-263.725v787.45M557.597-263.725v787.45M741.689-263.725v787.45M833.253-263.725v787.45M924.817-263.725v787.45M1017.34-263.725v787.45M1108.91-263.725v787.45M1201.44-263.725v787.45M1293-263.725v787.45M509.406 338.669H1293M509.406 246.141H1293M509.406 153.614H1293M509.406 61.086H1293M509.406 292.405H1293M509.406 199.878H1293M509.406 107.349H1293M509.406 14.822H1293M5.323-263.725v787.45M97.85-263.725v787.45M189.414-263.725v787.45M280.978-263.725v787.45M373.506-263.725v787.45M465.07-263.725v787.45M51.586-263.725v787.45M143.15-263.725v787.45M235.678-263.725v787.45M327.242-263.725v787.45M419.77-263.725v787.45M511.333-263.725l.001 787.45M-272.261 338.67h783.594M-272.261 246.142h783.594M-272.261 153.614h783.594M-272.261 61.086h783.594M-272.261 292.405h783.594M-272.261 199.878h783.594M-272.261 107.35h783.594M-272.261 14.822h783.594"/></g><defs><radialGradient id="a" cx="0" cy="0" r="1" gradientTransform="matrix(0 207.5 -670 0 1622 552.5)" gradientUnits="userSpaceOnUse"><stop stop-color="#0054FF"/><stop offset="1" stop-color="#0A0C0F" stop-opacity="0"/></radialGradient><radialGradient id="c" cx="0" cy="0" r="1" gradientTransform="matrix(0 178.5 -670 0 670 175.5)" gradientUnits="userSpaceOnUse"><stop stop-color="#0054FF"/><stop offset="1" stop-color="#0A0C0F" stop-opacity="0"/></radialGradient></defs></svg>